<mxfile host="app.diagrams.net" modified="2024-04-22T15:14:27.802Z" agent="Mozilla/5.0 (Windows NT 10.0; Win64; x64) AppleWebKit/537.36 (KHTML, like Gecko) Chrome/121.0.0.0 Safari/537.36 OPR/107.0.0.0" etag="gQegvbnwqQI4GzbRkn6c" version="24.2.7" type="github">
  <diagram name="Страница — 1" id="It8bKKWhT-oGizS_rRcF">
    <mxGraphModel dx="1076" dy="1090" grid="1" gridSize="10" guides="1" tooltips="1" connect="1" arrows="1" fold="1" page="1" pageScale="1" pageWidth="827" pageHeight="1169" math="0" shadow="0">
      <root>
        <mxCell id="0" />
        <mxCell id="1" parent="0" />
        <mxCell id="UxCoHSIy7uMHYBT-02Z4-1" value="Клиент" style="shape=umlActor;verticalLabelPosition=bottom;verticalAlign=top;html=1;outlineConnect=0;" vertex="1" parent="1">
          <mxGeometry x="50" y="80" width="30" height="60" as="geometry" />
        </mxCell>
        <mxCell id="UxCoHSIy7uMHYBT-02Z4-2" value="Курьер" style="shape=umlActor;verticalLabelPosition=bottom;verticalAlign=top;html=1;outlineConnect=0;" vertex="1" parent="1">
          <mxGeometry x="40" y="770" width="30" height="60" as="geometry" />
        </mxCell>
        <mxCell id="UxCoHSIy7uMHYBT-02Z4-3" value="Администратор" style="shape=umlActor;verticalLabelPosition=bottom;verticalAlign=top;html=1;outlineConnect=0;" vertex="1" parent="1">
          <mxGeometry x="30" y="380" width="30" height="60" as="geometry" />
        </mxCell>
        <mxCell id="UxCoHSIy7uMHYBT-02Z4-4" value="Оператор колл-центра" style="shape=umlActor;verticalLabelPosition=bottom;verticalAlign=top;html=1;outlineConnect=0;" vertex="1" parent="1">
          <mxGeometry x="730" y="90" width="30" height="60" as="geometry" />
        </mxCell>
        <mxCell id="UxCoHSIy7uMHYBT-02Z4-5" value="Менеджер" style="shape=umlActor;verticalLabelPosition=bottom;verticalAlign=top;html=1;outlineConnect=0;" vertex="1" parent="1">
          <mxGeometry x="740" y="360" width="30" height="60" as="geometry" />
        </mxCell>
        <mxCell id="UxCoHSIy7uMHYBT-02Z4-6" value="Маркетолог" style="shape=umlActor;verticalLabelPosition=bottom;verticalAlign=top;html=1;outlineConnect=0;" vertex="1" parent="1">
          <mxGeometry x="740" y="655" width="30" height="60" as="geometry" />
        </mxCell>
        <mxCell id="UxCoHSIy7uMHYBT-02Z4-7" value="Бухгалтер" style="shape=umlActor;verticalLabelPosition=bottom;verticalAlign=top;html=1;outlineConnect=0;" vertex="1" parent="1">
          <mxGeometry x="740" y="827.5" width="30" height="60" as="geometry" />
        </mxCell>
        <mxCell id="UxCoHSIy7uMHYBT-02Z4-8" value="" style="rounded=1;whiteSpace=wrap;html=1;" vertex="1" parent="1">
          <mxGeometry x="160" y="40" width="90" height="40" as="geometry" />
        </mxCell>
        <mxCell id="UxCoHSIy7uMHYBT-02Z4-9" value="Оформление заказа" style="text;html=1;align=center;verticalAlign=middle;whiteSpace=wrap;rounded=0;" vertex="1" parent="1">
          <mxGeometry x="175" y="45" width="60" height="30" as="geometry" />
        </mxCell>
        <mxCell id="UxCoHSIy7uMHYBT-02Z4-10" value="" style="rounded=1;whiteSpace=wrap;html=1;" vertex="1" parent="1">
          <mxGeometry x="290" y="75" width="90" height="40" as="geometry" />
        </mxCell>
        <mxCell id="UxCoHSIy7uMHYBT-02Z4-11" value="Просматривать товары" style="text;html=1;align=center;verticalAlign=middle;whiteSpace=wrap;rounded=0;" vertex="1" parent="1">
          <mxGeometry x="305" y="80" width="60" height="30" as="geometry" />
        </mxCell>
        <mxCell id="UxCoHSIy7uMHYBT-02Z4-12" value="" style="rounded=1;whiteSpace=wrap;html=1;" vertex="1" parent="1">
          <mxGeometry x="225" y="270" width="90" height="40" as="geometry" />
        </mxCell>
        <mxCell id="UxCoHSIy7uMHYBT-02Z4-13" value="Добавить комментарий" style="text;html=1;align=center;verticalAlign=middle;whiteSpace=wrap;rounded=0;" vertex="1" parent="1">
          <mxGeometry x="240" y="275" width="60" height="30" as="geometry" />
        </mxCell>
        <mxCell id="UxCoHSIy7uMHYBT-02Z4-14" value="" style="rounded=1;whiteSpace=wrap;html=1;" vertex="1" parent="1">
          <mxGeometry x="120" y="270" width="90" height="40" as="geometry" />
        </mxCell>
        <mxCell id="UxCoHSIy7uMHYBT-02Z4-15" value="Оплатить заказ" style="text;html=1;align=center;verticalAlign=middle;whiteSpace=wrap;rounded=0;" vertex="1" parent="1">
          <mxGeometry x="135" y="275" width="60" height="30" as="geometry" />
        </mxCell>
        <mxCell id="UxCoHSIy7uMHYBT-02Z4-16" value="Просматривать историю заказов" style="rounded=1;whiteSpace=wrap;html=1;" vertex="1" parent="1">
          <mxGeometry x="290" y="210" width="120" height="40" as="geometry" />
        </mxCell>
        <mxCell id="UxCoHSIy7uMHYBT-02Z4-17" value="" style="rounded=1;whiteSpace=wrap;html=1;" vertex="1" parent="1">
          <mxGeometry x="300" y="140" width="110" height="40" as="geometry" />
        </mxCell>
        <mxCell id="UxCoHSIy7uMHYBT-02Z4-18" value="Добавить товар в корзину" style="text;html=1;align=center;verticalAlign=middle;whiteSpace=wrap;rounded=0;" vertex="1" parent="1">
          <mxGeometry x="305" y="145" width="100" height="30" as="geometry" />
        </mxCell>
        <mxCell id="UxCoHSIy7uMHYBT-02Z4-19" value="" style="endArrow=classic;html=1;rounded=0;entryX=0;entryY=0.75;entryDx=0;entryDy=0;" edge="1" parent="1" source="UxCoHSIy7uMHYBT-02Z4-1" target="UxCoHSIy7uMHYBT-02Z4-8">
          <mxGeometry width="50" height="50" relative="1" as="geometry">
            <mxPoint x="190" y="240" as="sourcePoint" />
            <mxPoint x="240" y="190" as="targetPoint" />
          </mxGeometry>
        </mxCell>
        <mxCell id="UxCoHSIy7uMHYBT-02Z4-20" value="" style="endArrow=classic;html=1;rounded=0;entryX=-0.021;entryY=0.622;entryDx=0;entryDy=0;entryPerimeter=0;" edge="1" parent="1" source="UxCoHSIy7uMHYBT-02Z4-1" target="UxCoHSIy7uMHYBT-02Z4-10">
          <mxGeometry width="50" height="50" relative="1" as="geometry">
            <mxPoint x="90" y="114" as="sourcePoint" />
            <mxPoint x="170" y="80" as="targetPoint" />
          </mxGeometry>
        </mxCell>
        <mxCell id="UxCoHSIy7uMHYBT-02Z4-21" value="" style="endArrow=classic;html=1;rounded=0;entryX=0;entryY=0.5;entryDx=0;entryDy=0;" edge="1" parent="1" target="UxCoHSIy7uMHYBT-02Z4-17">
          <mxGeometry width="50" height="50" relative="1" as="geometry">
            <mxPoint x="80" y="120" as="sourcePoint" />
            <mxPoint x="180" y="90" as="targetPoint" />
          </mxGeometry>
        </mxCell>
        <mxCell id="UxCoHSIy7uMHYBT-02Z4-22" value="" style="endArrow=classic;html=1;rounded=0;entryX=0;entryY=0.5;entryDx=0;entryDy=0;" edge="1" parent="1" source="UxCoHSIy7uMHYBT-02Z4-1" target="UxCoHSIy7uMHYBT-02Z4-16">
          <mxGeometry width="50" height="50" relative="1" as="geometry">
            <mxPoint x="110" y="134" as="sourcePoint" />
            <mxPoint x="190" y="100" as="targetPoint" />
          </mxGeometry>
        </mxCell>
        <mxCell id="UxCoHSIy7uMHYBT-02Z4-23" value="" style="endArrow=classic;html=1;rounded=0;entryX=0.158;entryY=-0.044;entryDx=0;entryDy=0;entryPerimeter=0;" edge="1" parent="1" source="UxCoHSIy7uMHYBT-02Z4-1" target="UxCoHSIy7uMHYBT-02Z4-12">
          <mxGeometry width="50" height="50" relative="1" as="geometry">
            <mxPoint x="120" y="144" as="sourcePoint" />
            <mxPoint x="200" y="110" as="targetPoint" />
          </mxGeometry>
        </mxCell>
        <mxCell id="UxCoHSIy7uMHYBT-02Z4-24" value="" style="endArrow=classic;html=1;rounded=0;" edge="1" parent="1" source="UxCoHSIy7uMHYBT-02Z4-1" target="UxCoHSIy7uMHYBT-02Z4-15">
          <mxGeometry width="50" height="50" relative="1" as="geometry">
            <mxPoint x="130" y="154" as="sourcePoint" />
            <mxPoint x="210" y="120" as="targetPoint" />
          </mxGeometry>
        </mxCell>
        <mxCell id="UxCoHSIy7uMHYBT-02Z4-25" value="" style="rounded=1;whiteSpace=wrap;html=1;" vertex="1" parent="1">
          <mxGeometry x="135" y="350" width="90" height="40" as="geometry" />
        </mxCell>
        <mxCell id="UxCoHSIy7uMHYBT-02Z4-26" value="Добавлять товары в бд" style="text;html=1;align=center;verticalAlign=middle;whiteSpace=wrap;rounded=0;" vertex="1" parent="1">
          <mxGeometry x="140" y="355" width="80" height="30" as="geometry" />
        </mxCell>
        <mxCell id="UxCoHSIy7uMHYBT-02Z4-27" value="" style="rounded=1;whiteSpace=wrap;html=1;" vertex="1" parent="1">
          <mxGeometry x="215" y="400" width="90" height="40" as="geometry" />
        </mxCell>
        <mxCell id="UxCoHSIy7uMHYBT-02Z4-28" value="Редактировать товары в бд" style="text;html=1;align=center;verticalAlign=middle;whiteSpace=wrap;rounded=0;" vertex="1" parent="1">
          <mxGeometry x="225" y="405" width="70" height="30" as="geometry" />
        </mxCell>
        <mxCell id="UxCoHSIy7uMHYBT-02Z4-29" value="" style="rounded=1;whiteSpace=wrap;html=1;" vertex="1" parent="1">
          <mxGeometry x="215" y="460" width="90" height="40" as="geometry" />
        </mxCell>
        <mxCell id="UxCoHSIy7uMHYBT-02Z4-30" value="Удалять товары в бд" style="text;html=1;align=center;verticalAlign=middle;whiteSpace=wrap;rounded=0;" vertex="1" parent="1">
          <mxGeometry x="220" y="465" width="80" height="30" as="geometry" />
        </mxCell>
        <mxCell id="UxCoHSIy7uMHYBT-02Z4-31" value="" style="rounded=1;whiteSpace=wrap;html=1;" vertex="1" parent="1">
          <mxGeometry x="215" y="530" width="90" height="40" as="geometry" />
        </mxCell>
        <mxCell id="UxCoHSIy7uMHYBT-02Z4-32" value="Просматривать заказы" style="text;html=1;align=center;verticalAlign=middle;whiteSpace=wrap;rounded=0;" vertex="1" parent="1">
          <mxGeometry x="230" y="535" width="60" height="30" as="geometry" />
        </mxCell>
        <mxCell id="UxCoHSIy7uMHYBT-02Z4-33" value="" style="rounded=1;whiteSpace=wrap;html=1;" vertex="1" parent="1">
          <mxGeometry x="110" y="580" width="90" height="40" as="geometry" />
        </mxCell>
        <mxCell id="UxCoHSIy7uMHYBT-02Z4-34" value="Редактировать заказы" style="text;html=1;align=center;verticalAlign=middle;whiteSpace=wrap;rounded=0;" vertex="1" parent="1">
          <mxGeometry x="125" y="585" width="60" height="30" as="geometry" />
        </mxCell>
        <mxCell id="UxCoHSIy7uMHYBT-02Z4-35" value="" style="rounded=1;whiteSpace=wrap;html=1;" vertex="1" parent="1">
          <mxGeometry x="112.5" y="720" width="95" height="50" as="geometry" />
        </mxCell>
        <mxCell id="UxCoHSIy7uMHYBT-02Z4-36" value="Просматривать расписание заказов" style="text;html=1;align=center;verticalAlign=middle;whiteSpace=wrap;rounded=0;" vertex="1" parent="1">
          <mxGeometry x="130" y="730" width="60" height="30" as="geometry" />
        </mxCell>
        <mxCell id="UxCoHSIy7uMHYBT-02Z4-37" value="" style="rounded=1;whiteSpace=wrap;html=1;" vertex="1" parent="1">
          <mxGeometry x="200" y="800" width="90" height="40" as="geometry" />
        </mxCell>
        <mxCell id="UxCoHSIy7uMHYBT-02Z4-38" value="Обновлять статус заказа" style="text;html=1;align=center;verticalAlign=middle;whiteSpace=wrap;rounded=0;" vertex="1" parent="1">
          <mxGeometry x="200" y="805" width="90" height="30" as="geometry" />
        </mxCell>
        <mxCell id="UxCoHSIy7uMHYBT-02Z4-39" value="Брать заказы" style="rounded=1;whiteSpace=wrap;html=1;" vertex="1" parent="1">
          <mxGeometry x="112.5" y="870" width="90" height="40" as="geometry" />
        </mxCell>
        <mxCell id="UxCoHSIy7uMHYBT-02Z4-40" value="" style="endArrow=classic;html=1;rounded=0;exitX=1;exitY=1;exitDx=0;exitDy=0;exitPerimeter=0;" edge="1" parent="1" source="UxCoHSIy7uMHYBT-02Z4-3">
          <mxGeometry width="50" height="50" relative="1" as="geometry">
            <mxPoint x="80" y="440" as="sourcePoint" />
            <mxPoint x="157" y="578" as="targetPoint" />
          </mxGeometry>
        </mxCell>
        <mxCell id="UxCoHSIy7uMHYBT-02Z4-41" value="" style="endArrow=classic;html=1;rounded=0;entryX=-0.015;entryY=0.594;entryDx=0;entryDy=0;entryPerimeter=0;exitX=1;exitY=0.3333333333333333;exitDx=0;exitDy=0;exitPerimeter=0;" edge="1" parent="1" source="UxCoHSIy7uMHYBT-02Z4-3" target="UxCoHSIy7uMHYBT-02Z4-25">
          <mxGeometry width="50" height="50" relative="1" as="geometry">
            <mxPoint x="80" y="397" as="sourcePoint" />
            <mxPoint x="157" y="535" as="targetPoint" />
          </mxGeometry>
        </mxCell>
        <mxCell id="UxCoHSIy7uMHYBT-02Z4-42" value="" style="endArrow=classic;html=1;rounded=0;entryX=-0.015;entryY=0.594;entryDx=0;entryDy=0;entryPerimeter=0;" edge="1" parent="1" source="UxCoHSIy7uMHYBT-02Z4-3" target="UxCoHSIy7uMHYBT-02Z4-27">
          <mxGeometry width="50" height="50" relative="1" as="geometry">
            <mxPoint x="90" y="407" as="sourcePoint" />
            <mxPoint x="144" y="384" as="targetPoint" />
          </mxGeometry>
        </mxCell>
        <mxCell id="UxCoHSIy7uMHYBT-02Z4-43" value="" style="endArrow=classic;html=1;rounded=0;entryX=0;entryY=0.25;entryDx=0;entryDy=0;" edge="1" parent="1" source="UxCoHSIy7uMHYBT-02Z4-3" target="UxCoHSIy7uMHYBT-02Z4-29">
          <mxGeometry width="50" height="50" relative="1" as="geometry">
            <mxPoint x="100" y="417" as="sourcePoint" />
            <mxPoint x="154" y="394" as="targetPoint" />
          </mxGeometry>
        </mxCell>
        <mxCell id="UxCoHSIy7uMHYBT-02Z4-44" value="" style="endArrow=classic;html=1;rounded=0;entryX=0;entryY=0.25;entryDx=0;entryDy=0;" edge="1" parent="1" source="UxCoHSIy7uMHYBT-02Z4-3" target="UxCoHSIy7uMHYBT-02Z4-31">
          <mxGeometry width="50" height="50" relative="1" as="geometry">
            <mxPoint x="110" y="427" as="sourcePoint" />
            <mxPoint x="164" y="404" as="targetPoint" />
          </mxGeometry>
        </mxCell>
        <mxCell id="UxCoHSIy7uMHYBT-02Z4-45" value="" style="endArrow=classic;html=1;rounded=0;entryX=-0.015;entryY=0.594;entryDx=0;entryDy=0;entryPerimeter=0;" edge="1" parent="1">
          <mxGeometry width="50" height="50" relative="1" as="geometry">
            <mxPoint x="70" y="780" as="sourcePoint" />
            <mxPoint x="112.5" y="757" as="targetPoint" />
          </mxGeometry>
        </mxCell>
        <mxCell id="UxCoHSIy7uMHYBT-02Z4-46" value="" style="endArrow=classic;html=1;rounded=0;entryX=0;entryY=0.25;entryDx=0;entryDy=0;" edge="1" parent="1" source="UxCoHSIy7uMHYBT-02Z4-2" target="UxCoHSIy7uMHYBT-02Z4-38">
          <mxGeometry width="50" height="50" relative="1" as="geometry">
            <mxPoint x="80" y="790" as="sourcePoint" />
            <mxPoint x="122.5" y="767" as="targetPoint" />
          </mxGeometry>
        </mxCell>
        <mxCell id="UxCoHSIy7uMHYBT-02Z4-47" value="" style="endArrow=classic;html=1;rounded=0;entryX=0.133;entryY=0;entryDx=0;entryDy=0;entryPerimeter=0;" edge="1" parent="1" source="UxCoHSIy7uMHYBT-02Z4-2" target="UxCoHSIy7uMHYBT-02Z4-39">
          <mxGeometry width="50" height="50" relative="1" as="geometry">
            <mxPoint x="90" y="800" as="sourcePoint" />
            <mxPoint x="132.5" y="777" as="targetPoint" />
          </mxGeometry>
        </mxCell>
        <mxCell id="UxCoHSIy7uMHYBT-02Z4-48" value="" style="rounded=1;whiteSpace=wrap;html=1;" vertex="1" parent="1">
          <mxGeometry x="540" y="45" width="90" height="40" as="geometry" />
        </mxCell>
        <mxCell id="UxCoHSIy7uMHYBT-02Z4-49" value="Принимать заказы" style="text;html=1;align=center;verticalAlign=middle;whiteSpace=wrap;rounded=0;" vertex="1" parent="1">
          <mxGeometry x="555" y="50" width="60" height="30" as="geometry" />
        </mxCell>
        <mxCell id="UxCoHSIy7uMHYBT-02Z4-50" value="" style="endArrow=classic;html=1;rounded=0;entryX=1;entryY=0;entryDx=0;entryDy=0;" edge="1" parent="1" source="UxCoHSIy7uMHYBT-02Z4-4" target="UxCoHSIy7uMHYBT-02Z4-31">
          <mxGeometry width="50" height="50" relative="1" as="geometry">
            <mxPoint x="500" y="290" as="sourcePoint" />
            <mxPoint x="550" y="240" as="targetPoint" />
          </mxGeometry>
        </mxCell>
        <mxCell id="UxCoHSIy7uMHYBT-02Z4-51" value="" style="rounded=1;whiteSpace=wrap;html=1;" vertex="1" parent="1">
          <mxGeometry x="540" y="110" width="100" height="50" as="geometry" />
        </mxCell>
        <mxCell id="UxCoHSIy7uMHYBT-02Z4-52" value="Просматривать историю клиента" style="text;html=1;align=center;verticalAlign=middle;whiteSpace=wrap;rounded=0;" vertex="1" parent="1">
          <mxGeometry x="560" y="120" width="60" height="30" as="geometry" />
        </mxCell>
        <mxCell id="UxCoHSIy7uMHYBT-02Z4-53" value="" style="endArrow=classic;html=1;rounded=0;entryX=1.022;entryY=0.664;entryDx=0;entryDy=0;entryPerimeter=0;exitX=0;exitY=0.3333333333333333;exitDx=0;exitDy=0;exitPerimeter=0;" edge="1" parent="1" source="UxCoHSIy7uMHYBT-02Z4-4" target="UxCoHSIy7uMHYBT-02Z4-48">
          <mxGeometry width="50" height="50" relative="1" as="geometry">
            <mxPoint x="500" y="240" as="sourcePoint" />
            <mxPoint x="550" y="190" as="targetPoint" />
          </mxGeometry>
        </mxCell>
        <mxCell id="UxCoHSIy7uMHYBT-02Z4-54" value="" style="endArrow=classic;html=1;rounded=0;entryX=0.987;entryY=0.62;entryDx=0;entryDy=0;entryPerimeter=0;exitX=0;exitY=0.3333333333333333;exitDx=0;exitDy=0;exitPerimeter=0;" edge="1" parent="1" target="UxCoHSIy7uMHYBT-02Z4-51">
          <mxGeometry width="50" height="50" relative="1" as="geometry">
            <mxPoint x="740" y="120" as="sourcePoint" />
            <mxPoint x="642" y="82" as="targetPoint" />
          </mxGeometry>
        </mxCell>
        <mxCell id="UxCoHSIy7uMHYBT-02Z4-55" value="Контролировать цены товаров" style="rounded=1;whiteSpace=wrap;html=1;" vertex="1" parent="1">
          <mxGeometry x="570" y="335" width="100" height="50" as="geometry" />
        </mxCell>
        <mxCell id="UxCoHSIy7uMHYBT-02Z4-56" value="" style="rounded=1;whiteSpace=wrap;html=1;" vertex="1" parent="1">
          <mxGeometry x="570" y="410" width="100" height="50" as="geometry" />
        </mxCell>
        <mxCell id="UxCoHSIy7uMHYBT-02Z4-57" value="Выбирать поставщика" style="text;html=1;align=center;verticalAlign=middle;whiteSpace=wrap;rounded=0;" vertex="1" parent="1">
          <mxGeometry x="590" y="420" width="60" height="30" as="geometry" />
        </mxCell>
        <mxCell id="UxCoHSIy7uMHYBT-02Z4-58" value="" style="rounded=1;whiteSpace=wrap;html=1;" vertex="1" parent="1">
          <mxGeometry x="570" y="480" width="100" height="50" as="geometry" />
        </mxCell>
        <mxCell id="UxCoHSIy7uMHYBT-02Z4-59" value="Вносить данные о поставках" style="text;html=1;align=center;verticalAlign=middle;whiteSpace=wrap;rounded=0;" vertex="1" parent="1">
          <mxGeometry x="590" y="490" width="60" height="30" as="geometry" />
        </mxCell>
        <mxCell id="UxCoHSIy7uMHYBT-02Z4-60" value="" style="rounded=1;whiteSpace=wrap;html=1;" vertex="1" parent="1">
          <mxGeometry x="417.5" y="520" width="100" height="50" as="geometry" />
        </mxCell>
        <mxCell id="UxCoHSIy7uMHYBT-02Z4-61" value="Вести отчетность о поставках" style="text;html=1;align=center;verticalAlign=middle;whiteSpace=wrap;rounded=0;" vertex="1" parent="1">
          <mxGeometry x="430" y="530" width="75" height="30" as="geometry" />
        </mxCell>
        <mxCell id="UxCoHSIy7uMHYBT-02Z4-62" value="" style="rounded=1;whiteSpace=wrap;html=1;" vertex="1" parent="1">
          <mxGeometry x="545" y="600" width="105" height="70" as="geometry" />
        </mxCell>
        <mxCell id="UxCoHSIy7uMHYBT-02Z4-63" value="Размещение акций и скидок на товары" style="text;html=1;align=center;verticalAlign=middle;whiteSpace=wrap;rounded=0;" vertex="1" parent="1">
          <mxGeometry x="567.5" y="620" width="60" height="25" as="geometry" />
        </mxCell>
        <mxCell id="UxCoHSIy7uMHYBT-02Z4-64" value="" style="rounded=1;whiteSpace=wrap;html=1;" vertex="1" parent="1">
          <mxGeometry x="422.5" y="822.5" width="110" height="70" as="geometry" />
        </mxCell>
        <mxCell id="UxCoHSIy7uMHYBT-02Z4-65" value="Вести учет доходов и расходов" style="text;html=1;align=center;verticalAlign=middle;whiteSpace=wrap;rounded=0;" vertex="1" parent="1">
          <mxGeometry x="437.5" y="842.5" width="80" height="30" as="geometry" />
        </mxCell>
        <mxCell id="UxCoHSIy7uMHYBT-02Z4-66" value="" style="rounded=1;whiteSpace=wrap;html=1;" vertex="1" parent="1">
          <mxGeometry x="542.5" y="907.5" width="100" height="50" as="geometry" />
        </mxCell>
        <mxCell id="UxCoHSIy7uMHYBT-02Z4-67" value="Формировать финансовые отчеты" style="text;html=1;align=center;verticalAlign=middle;whiteSpace=wrap;rounded=0;" vertex="1" parent="1">
          <mxGeometry x="562.5" y="917.5" width="60" height="30" as="geometry" />
        </mxCell>
        <mxCell id="UxCoHSIy7uMHYBT-02Z4-68" value="" style="endArrow=classic;html=1;rounded=0;entryX=1;entryY=0.5;entryDx=0;entryDy=0;" edge="1" parent="1" source="UxCoHSIy7uMHYBT-02Z4-5" target="UxCoHSIy7uMHYBT-02Z4-55">
          <mxGeometry width="50" height="50" relative="1" as="geometry">
            <mxPoint x="430" y="410" as="sourcePoint" />
            <mxPoint x="480" y="360" as="targetPoint" />
          </mxGeometry>
        </mxCell>
        <mxCell id="UxCoHSIy7uMHYBT-02Z4-69" value="" style="endArrow=classic;html=1;rounded=0;entryX=1;entryY=0.5;entryDx=0;entryDy=0;" edge="1" parent="1" target="UxCoHSIy7uMHYBT-02Z4-56">
          <mxGeometry width="50" height="50" relative="1" as="geometry">
            <mxPoint x="740" y="394" as="sourcePoint" />
            <mxPoint x="680" y="370" as="targetPoint" />
          </mxGeometry>
        </mxCell>
        <mxCell id="UxCoHSIy7uMHYBT-02Z4-70" value="" style="endArrow=classic;html=1;rounded=0;entryX=1;entryY=0.25;entryDx=0;entryDy=0;" edge="1" parent="1" source="UxCoHSIy7uMHYBT-02Z4-5" target="UxCoHSIy7uMHYBT-02Z4-58">
          <mxGeometry width="50" height="50" relative="1" as="geometry">
            <mxPoint x="750" y="404" as="sourcePoint" />
            <mxPoint x="690" y="380" as="targetPoint" />
          </mxGeometry>
        </mxCell>
        <mxCell id="UxCoHSIy7uMHYBT-02Z4-71" value="" style="endArrow=classic;html=1;rounded=0;entryX=0.371;entryY=0.017;entryDx=0;entryDy=0;entryPerimeter=0;" edge="1" parent="1" source="UxCoHSIy7uMHYBT-02Z4-5" target="UxCoHSIy7uMHYBT-02Z4-60">
          <mxGeometry width="50" height="50" relative="1" as="geometry">
            <mxPoint x="760" y="414" as="sourcePoint" />
            <mxPoint x="700" y="390" as="targetPoint" />
          </mxGeometry>
        </mxCell>
        <mxCell id="UxCoHSIy7uMHYBT-02Z4-72" value="" style="endArrow=classic;html=1;rounded=0;entryX=0.993;entryY=0.414;entryDx=0;entryDy=0;entryPerimeter=0;" edge="1" parent="1" target="UxCoHSIy7uMHYBT-02Z4-62">
          <mxGeometry width="50" height="50" relative="1" as="geometry">
            <mxPoint x="755" y="694" as="sourcePoint" />
            <mxPoint x="695" y="670" as="targetPoint" />
          </mxGeometry>
        </mxCell>
        <mxCell id="UxCoHSIy7uMHYBT-02Z4-73" value="" style="endArrow=classic;html=1;rounded=0;entryX=1;entryY=0.5;entryDx=0;entryDy=0;" edge="1" parent="1" source="UxCoHSIy7uMHYBT-02Z4-7" target="UxCoHSIy7uMHYBT-02Z4-64">
          <mxGeometry width="50" height="50" relative="1" as="geometry">
            <mxPoint x="737.5" y="847.5" as="sourcePoint" />
            <mxPoint x="672.5" y="806.5" as="targetPoint" />
          </mxGeometry>
        </mxCell>
        <mxCell id="UxCoHSIy7uMHYBT-02Z4-74" value="" style="endArrow=classic;html=1;rounded=0;entryX=1;entryY=0;entryDx=0;entryDy=0;" edge="1" parent="1" source="UxCoHSIy7uMHYBT-02Z4-7" target="UxCoHSIy7uMHYBT-02Z4-66">
          <mxGeometry width="50" height="50" relative="1" as="geometry">
            <mxPoint x="747.5" y="857.5" as="sourcePoint" />
            <mxPoint x="682.5" y="816.5" as="targetPoint" />
          </mxGeometry>
        </mxCell>
        <mxCell id="UxCoHSIy7uMHYBT-02Z4-75" value="" style="rounded=1;whiteSpace=wrap;html=1;" vertex="1" parent="1">
          <mxGeometry x="540" y="680" width="105" height="70" as="geometry" />
        </mxCell>
        <mxCell id="UxCoHSIy7uMHYBT-02Z4-76" value="Удаление акций и скидок на товары" style="text;html=1;align=center;verticalAlign=middle;whiteSpace=wrap;rounded=0;" vertex="1" parent="1">
          <mxGeometry x="562.5" y="700" width="60" height="25" as="geometry" />
        </mxCell>
        <mxCell id="UxCoHSIy7uMHYBT-02Z4-77" value="" style="endArrow=classic;html=1;rounded=0;" edge="1" parent="1" target="UxCoHSIy7uMHYBT-02Z4-75">
          <mxGeometry width="50" height="50" relative="1" as="geometry">
            <mxPoint x="750" y="690" as="sourcePoint" />
            <mxPoint x="659" y="639" as="targetPoint" />
          </mxGeometry>
        </mxCell>
        <mxCell id="UxCoHSIy7uMHYBT-02Z4-78" value="" style="curved=1;endArrow=classic;html=1;rounded=0;exitX=0.25;exitY=0.1;exitDx=0;exitDy=0;exitPerimeter=0;entryX=1;entryY=1;entryDx=0;entryDy=0;" edge="1" parent="1" source="UxCoHSIy7uMHYBT-02Z4-6" target="UxCoHSIy7uMHYBT-02Z4-10">
          <mxGeometry width="50" height="50" relative="1" as="geometry">
            <mxPoint x="360" y="370" as="sourcePoint" />
            <mxPoint x="410" y="320" as="targetPoint" />
            <Array as="points">
              <mxPoint x="650" y="580" />
              <mxPoint x="530" y="550" />
              <mxPoint x="480" y="370" />
              <mxPoint x="550" y="190" />
            </Array>
          </mxGeometry>
        </mxCell>
        <mxCell id="UxCoHSIy7uMHYBT-02Z4-79" value="" style="curved=1;endArrow=classic;html=1;rounded=0;exitX=0.25;exitY=0.1;exitDx=0;exitDy=0;exitPerimeter=0;entryX=1;entryY=0.25;entryDx=0;entryDy=0;" edge="1" parent="1" source="UxCoHSIy7uMHYBT-02Z4-5" target="UxCoHSIy7uMHYBT-02Z4-10">
          <mxGeometry width="50" height="50" relative="1" as="geometry">
            <mxPoint x="360" y="370" as="sourcePoint" />
            <mxPoint x="410" y="320" as="targetPoint" />
            <Array as="points">
              <mxPoint x="650" y="270" />
              <mxPoint x="600" y="230" />
            </Array>
          </mxGeometry>
        </mxCell>
        <mxCell id="UxCoHSIy7uMHYBT-02Z4-80" value="" style="curved=1;endArrow=classic;html=1;rounded=0;exitX=0.5;exitY=0;exitDx=0;exitDy=0;exitPerimeter=0;entryX=0;entryY=0.75;entryDx=0;entryDy=0;" edge="1" parent="1" source="UxCoHSIy7uMHYBT-02Z4-3" target="UxCoHSIy7uMHYBT-02Z4-10">
          <mxGeometry width="50" height="50" relative="1" as="geometry">
            <mxPoint x="50" y="370" as="sourcePoint" />
            <mxPoint x="100" y="320" as="targetPoint" />
            <Array as="points">
              <mxPoint x="60" y="350" />
              <mxPoint x="70" y="220" />
            </Array>
          </mxGeometry>
        </mxCell>
        <mxCell id="UxCoHSIy7uMHYBT-02Z4-81" value="" style="curved=1;endArrow=classic;html=1;rounded=0;entryX=0;entryY=0.5;entryDx=0;entryDy=0;" edge="1" parent="1" source="UxCoHSIy7uMHYBT-02Z4-3" target="UxCoHSIy7uMHYBT-02Z4-75">
          <mxGeometry width="50" height="50" relative="1" as="geometry">
            <mxPoint x="390" y="550" as="sourcePoint" />
            <mxPoint x="440" y="500" as="targetPoint" />
            <Array as="points">
              <mxPoint x="240" y="640" />
              <mxPoint x="370" y="680" />
            </Array>
          </mxGeometry>
        </mxCell>
        <mxCell id="UxCoHSIy7uMHYBT-02Z4-82" value="" style="endArrow=classic;html=1;rounded=0;entryX=0;entryY=0.5;entryDx=0;entryDy=0;" edge="1" parent="1" target="UxCoHSIy7uMHYBT-02Z4-62">
          <mxGeometry width="50" height="50" relative="1" as="geometry">
            <mxPoint x="260" y="635" as="sourcePoint" />
            <mxPoint x="440" y="500" as="targetPoint" />
          </mxGeometry>
        </mxCell>
        <mxCell id="UxCoHSIy7uMHYBT-02Z4-83" value="" style="endArrow=none;html=1;rounded=0;" edge="1" parent="1">
          <mxGeometry width="50" height="50" relative="1" as="geometry">
            <mxPoint x="90" y="980" as="sourcePoint" />
            <mxPoint x="90" y="10" as="targetPoint" />
          </mxGeometry>
        </mxCell>
        <mxCell id="UxCoHSIy7uMHYBT-02Z4-84" value="" style="endArrow=none;html=1;rounded=0;" edge="1" parent="1">
          <mxGeometry width="50" height="50" relative="1" as="geometry">
            <mxPoint x="90" y="10" as="sourcePoint" />
            <mxPoint x="700" y="10" as="targetPoint" />
          </mxGeometry>
        </mxCell>
        <mxCell id="UxCoHSIy7uMHYBT-02Z4-85" value="" style="endArrow=none;html=1;rounded=0;" edge="1" parent="1">
          <mxGeometry width="50" height="50" relative="1" as="geometry">
            <mxPoint x="700" y="980" as="sourcePoint" />
            <mxPoint x="700" y="10" as="targetPoint" />
          </mxGeometry>
        </mxCell>
        <mxCell id="UxCoHSIy7uMHYBT-02Z4-86" value="" style="endArrow=none;html=1;rounded=0;" edge="1" parent="1">
          <mxGeometry width="50" height="50" relative="1" as="geometry">
            <mxPoint x="90" y="980" as="sourcePoint" />
            <mxPoint x="700" y="980" as="targetPoint" />
          </mxGeometry>
        </mxCell>
        <mxCell id="UxCoHSIy7uMHYBT-02Z4-87" value="Система продажи и доставки продуктов" style="text;html=1;align=center;verticalAlign=middle;whiteSpace=wrap;rounded=0;" vertex="1" parent="1">
          <mxGeometry x="267.5" y="15" width="262.5" height="30" as="geometry" />
        </mxCell>
      </root>
    </mxGraphModel>
  </diagram>
</mxfile>
